<svg id="back" xmlns="http://www.w3.org/2000/svg" xmlns:xlink="http://www.w3.org/1999/xlink" width="2059" height="1235" viewBox="0 0 2059 1235">
  <defs>
    <clipPath id="clip-path">
      <rect id="Rectangle_8" data-name="Rectangle 8" width="2059" height="1235" fill="none"/>
    </clipPath>
    <linearGradient id="linear-gradient" x1="0.5" y1="0.54" x2="0.5" y2="-0.007" gradientUnits="objectBoundingBox">
      <stop offset="0" stop-color="#fff"/>
      <stop offset="1" stop-color="#bcb9dc"/>
    </linearGradient>
  </defs>
  <g id="Group_83" data-name="Group 83" clip-path="url(#clip-path)">
    <rect id="Rectangle_7" data-name="Rectangle 7" width="2059" height="1235" fill="url(#linear-gradient)"/>
    <g id="Group_57" data-name="Group 57" transform="translate(0 62.083)">
      <path id="Path_203" data-name="Path 203" d="M1243.217,584.957c-23.479-1.319-50.9-15.165-72.786-16.484s-15.07-2.636-40.82-2.636-35.392-7.528-23.949-11.338,53.86-2.344,73.387-4.1,46.118-6.222,32.991-7.506-28.812-3.044-45.884-4.8-28.515,1.174-47.365.293,38.713-3.345,32.989-7.093-17.168-5.741-37.029-5.624-28.276-3.448-54.2-5.476-43.09-6.128-64.3-7.3-93.861,2.269-122.642-4.036S909.97,492,942.536,493.976s87.9-3.3,68.564-11.208-64.777-12.454-96.587-11.5-47.715-2.343-64.376,4.25-23.479,11.206-49.988,13.185-44.684.66-68.922,1.978-42.413-9.229-112.85-8.569c-60.014.56-58.874-9.444-42.305-12.9,39.012-4.243,99.78-13.679,115.815-14.348,20.532-.854,19.523-.023,38.711,0s38.039-.315,45.108-.023,28.278-2.345,39.722-4.353,17.506-.92,33.663-.185,28.951-1.029,46.792-.15,20.2-2.343,25.922-3.224S965.23,435.8,987.11,436.676s69.008-3.221,90.553-9.374-4.713-6.448-29.286-10.642-31.981-9.578-67.664-11.043-63.707,5.422-82.138,2.124-29.286-5.055-39.638-3.958-31.811-1.317-52.515-1.536-29.286-.882-39.639,1.757,7.071,3.956-12.371,5.715-20.2,1.758-43.423,2.417-30.55-.219-41.913,0-29.035.221-21.965,2.638a105.044,105.044,0,0,0,22.976,4.4c4.8.219,17.925.876,1.261,2.195s-36.182,9.948-58.9,9.948H548.07c-57.979,3.426-1.944,12.1-25.509,12.1-3.838,0-7.721.084-11.705.254-.1,0-108.365,3.5-184.07,17.343-75.737,13.842-106.79,5.931-133.3,5.931s-69.679-2.561-93.157,4.322S0,478.813,0,478.813v36.259l.165,83.066S63.976,584.3,115.477,584.957s97.7.807,134.814,4.356,55.289,1.723,90.884,0,39.386-2.51,88.614-7.718,43.982-7.846,81.066-11.144,63.595,11.355,139.332,18.862,68.922,14.761,124.212,8.826,93.914-3.3,117.392-3.952,127.24,17.8,173.44,12.524,68.167-7.253,127.243-8.572S1266.692,586.274,1243.217,584.957ZM520.094,483.587c-16.662,4.4-44.941-1.756-63.119.438s-66.147,7.472-53.019,10.549,22.217,1.319,49.99,3.517,46.456,1.319,38.376,2.2-24.237,4.4-59.583,6.591-60.594,8.712-86.347,12.709-48.98-4.794-70.692-6.554-15.653-2.636-45.445.878-97.96-3.652-67.662-9.076,35.344-1.172,82.3,0c10.74.266,5.555-7.186,45.445-7.186s65.643-6.592,95.94-9.668,28.278-8.79,75.236-10.548S536.757,479.193,520.094,483.587Z" transform="translate(0 -298.545)" fill="#fff" opacity="0.1"/>
      <path id="Path_204" data-name="Path 204" d="M2013.125,815.886c-14.672-2.013-3.209-5.862,29.394-10.182s30.237-14.1,61.823-14.946,56.327-.221,81.566.423,18.2-8.9,52.191-10.961a873.965,873.965,0,0,1,95.077-.542c27.722,1.418,29.114,3.677,76.538-3.525s45.707-12.561,67.724-8.535,41.474,17.486,74.841,17.449,83.631-3.741,62.538,2.685-15,14.966-42.189,12.958-47.782-4.293-75.145-3.23,13.117,9.407,42.848,11.124,38.734,3.424,60.089,1.26,37.441-.526,26,5.11-20.972,13.148-42.374,16.189-47.532.159-75.9,1.142-53.2,2.116-71.629,6.162-47.4,6.769-74.915,1.625-52.021-9.835-72.237-9.983-55.33,12.865-81.679,13.936-41.858-1.8-68.083-2.93-.327-3.165,5.306-4.427,5.526-8.309-4.562-8.74-12.1-.521-34.822-1.058-44.531.728-55.123.273,48.914-6.7,85.251-5.579,9.345-4.312-12.705-7.743-44.011.468-60.752,1.507S2027.17,817.806,2013.125,815.886Z" transform="translate(-1180.419 -512.783)" fill="#fff" opacity="0.2"/>
      <path id="Path_205" data-name="Path 205" d="M235.81,533.87c-9.115,2.646-17.675,5.715-46.96,0s-37.87-7.472-58.574-8.789-32.823-3.076-45.951-3.517-35.85,6.4-42.919,7.377-23.229-.345-24.745,2.294,13.13,7.031,28.782,7.031,32.318-2.2,57.566,0,16.664,5.712.5,9.231-26.762,4.4-51.5,5.713S16.661,550.692,0,552.17V492.555s41.909-2.638,63.623,0,48.979-3.957,69.682-5.276,11.109-9.229,2.524-10.106-40.9-4.4-17.924-9.232,59.33-2.638,82.559,0,18.176,5.274,44.939,3.076,65.136-2.636,55.544,1.317-31.306,4.839-45.949,5.277-15.654,2.2-39.892,6.153-23.731,10.548-18.681,10.989,19.188,4.393,39.89,5.274,12.052,2.333,47.466.878,82.81-8.35,71.7-3.517-3.534,6.65-28.275,11.9-42.921,2.168-53.526,8.761,40.9,2.2,69.684-4.4,58.068-9.668,52.516-6.591-11.108,6.153-27.269,11.424-15.148,10.548-35.345,15.826-26.764,5.273-48.98,5.273S250.959,529.477,235.81,533.87Z" transform="translate(0 -335.643)" fill="#fff" opacity="0.1"/>
      <path id="Path_206" data-name="Path 206" d="M1537.191,399.624c-43.437,2.781-45.52-4.255-76.008-1.43s-55.235.1-36.7-2.005,40.492-2.8,55.854-6.093,43.761-6.3,58.993-7.143-15.195-.607-30.406-.571-12.462-2.5,7.283-5.04,46.25-1.072,64.787-2.988,30.845-5.08,49.048-5.548,122.444,2.835,167,11.922,168.172,2.678,225.547-2.067,132.555-6.241,172.765-4.272,79.519,4.162,103.648,5.1,96.634-.61,79.583,1.5-33.242,5.681-68.175,7.45-127.073,1.494-147.651,1.592-77.892,2.419-124.522,6.881,33.112-.35,83.194.109,122.412,6.184,91.091,6.565S2123,406.269,2094.3,409.129s-61.141,12.438-100.413,8.788-79.514-4.408-91.138-4.625-2.863,7.226,6.935,8.866,11.36,10.89-35.921,5.633-82.027-11.249-105.263-12.17-44.794,2.554-65.433,5.077-56.419,2.336-89.447-.712S1613.353,394.746,1537.191,399.624Z" transform="translate(-834.126 -278.989)" fill="#fff" opacity="0.1"/>
      <path id="Path_207" data-name="Path 207" d="M1785.754,572.924c-10.816,1-23.12-9.92-32.856-10.61s-24.873-1.733-37.011-.4-19.568,2.717-34.027,1.683-12.739-3.8-24.867-3.123-13.8-.519-23.6,2.011-1.378,2.264-13.846,3.042-13.811.473-23.58.953-5.726.229-20.887.947-50.7,2.088-62.718,1.078-6.845,1.905-.071,4.948,37.332,8.643,38.3,11.291-17.132-2.53.6,5.577,32.92,5.04,50.427,4.936,32.729-5.213,45.167-3.908,24.843,4.992,30.557,5.621,6.362,2.408,17.49,1.2,17.229-4.358,21.652-7.533,11.188-5.449,25.329-5.589,20.887-.945,31.326-1.128,7.7,2.722,24.93-1.2,21.617-5.04,40.468-4.839,9.79-1.945.045-3.221S1811.373,570.564,1785.754,572.924Z" transform="translate(-885.333 -391.693)" fill="#fff" opacity="0.14"/>
      <path id="Path_208" data-name="Path 208" d="M513.24,176.779c-2.019,3.13-8.246,8.974-27.624,12.921s-31.337,2.872-32.985,5.382-20.2,4.307-19.791,13.638,35.871,19.025,57.723,19.025,37.52-4.307,41.644,0,14.844,7.894,27.625,9.689,15.668,3.229,32.984,2.513,35.459-1.078,41.644-1.8,14.02-2.87,21.853-3.229,8.245.717,22.677.717,22.264.717,34.223,0,10.719,3.589,23.5-1.8,9.484-7.177,30.1-8.974,51.953-2.51,44.529-7.9-23.088-5.911-30.92-8.516,1.236-6.2,8.244-6.2,38.757-3.588-10.307-7.9-36.7-11.127-27.213-12.921,28.862-8.973,20.2-11.126-18.965-4.664-27.623-5.383-10.309,1.438-19.794,2.151-16.466,1.078-23.694,1.437a96.2,96.2,0,0,1-27.019-2.151c-11.545-2.516-30.51-2.447-38.758-1.585s-50.845-3.084-11.816-14.028H492.212s14.019,9.51,25.151,10.944,21.853,2.153,22.266,4.31-4.95,7.176-13.607,7.176S515.616,173.1,513.24,176.779Z" transform="translate(-254.592 -150.76)" fill="#fff" opacity="0.1"/>
      <path id="Path_209" data-name="Path 209" d="M840.239,335.011c-8.862-5.365-16.156-10.986,13.126-14.945s30.8,0,48.473-3.952,7.573-5.715,27.264-5.276,20.2-.439,28.779,3.514,0,9.165,27.77,8.54,35.848,1.132,35.848,3.77-16.156.438-34.839,3.074-21.205,7.47-32.311,8.792-12.12-.441-30.295,0-1.515,2.635-22.216,8.35S848.694,340.13,840.239,335.011Z" transform="translate(-489.625 -244.879)" fill="#fff" opacity="0.1"/>
      <path id="Path_210" data-name="Path 210" d="M3151.446,655.622c-19.348-3.062-20.2-5.695-36.861-5.695s-19.7-1.241-36.354,0-28.283-.114-37.371-.552,7.071-6.138,21.715-6.138,9.593-.246,34.336-2.722,45.949-3.47,61.1-3.47,19.184.742,37.368,1.732,33.829,1.241,46.451,0,31.309-.99,43.423-1.732,19.7-.99,28.28,0,1.006,3.47,18.178,4.459,22.721,1.238,29.286,1.238a126.763,126.763,0,0,1,19.693.992c11.616,1.236,6.063.583,19.694,2.274s30.8,2.181,42.414,2.181,29.289-.99,17.167.995-15.146,6.438-39.89,6.438-35.344.494-54.027,2.229-22.725,1.487-42.415,3.468-6.059,4.954-40.4,1.981-37.873-2.972-42.416-3.464-7.575-.743-29.29-1.735-31.808,4.211-54.532,4.457-41.909-.246-47.97-.495-21.711-4.708,1.515-4.708,35.349,1.738,42.919.994S3167.1,658.1,3151.446,655.622Z" transform="translate(-1787.083 -436.409)" fill="#fff" opacity="0.14"/>
    </g>
    <path id="Path_211" data-name="Path 211" d="M554.8,1396.654s34.267-10.864,44.056-15.513,27.674-.383,44.059-14.932,22.844-7.555,42.425-21.126,38.441-22.878,54.3-30.633,33.812-18.613,55.024-31.021,55.35-34.122,60.311-34.122,21.6-3.1,32.861,0,17.789,10.858,37.37,13.959,33.8,6.2,47.9,6.2,30.423,6.868,30.423,6.868,18.975-3.99,38.86,0,55.265,19.5,57.971,21.051,9.695,9.306,21.7,9.306,41.882,3.1,42.447,0,20.406-7.755,30.068-13.959,16.535-6.2,20.44-9.306,13.7-7.755,26.751-13.959,69.9-5.859,94.508-21.542,53.982-25.071,53.982-25.071,22.268,1.469,26.635,0,57.808-18.529,65.355-20.081,4.283-4.653,32.023-10.857,16.153-7.755,37.449-7.755,21.3-3.1,29.454,0,49.9,9.306,49.425,10.857.165,1.551,19.428,4.653,17.631,3.1,43.74,9.306,16.691-.305,37.569,11.2,27.619,13.5,44.895,21.512,19.732,14.246,47.774,17.136,44.52-2.682,67.638,1.777,13.406.175,42.385,6.847a646.946,646.946,0,0,1,74.669,22.269c16.318,6.118,76.076,26.577,76.076,26.577l.209,539.458L48.955,1843.348,44.06,1399.756S457.208,1433.943,554.8,1396.654Z" transform="translate(-25.916 -695.715)" fill="#cad0e5"/>
  </g>
</svg>
