<svg xmlns="http://www.w3.org/2000/svg" xmlns:xlink="http://www.w3.org/1999/xlink" width="1972" height="1183" viewBox="0 0 1972 1183">
  <defs>
    <clipPath id="clip-path">
      <rect id="Rectangle_5" data-name="Rectangle 5" width="1972" height="1183" transform="translate(0 0.133)" fill="none"/>
    </clipPath>
  </defs>
  <g id="layer_2" transform="translate(0 0.019)">
    <g id="Group_56" data-name="Group 56" transform="translate(0 -0.152)" clip-path="url(#clip-path)">
      <path id="Path_117" data-name="Path 117" d="M-1.376,1330.527s7.864-6.521,18.508-14.036,23.656-12.245,34.3-18.159,22.848-9.227,44.945-15.376,31.5-6.727,46.557-13.931,19.795-14.573,36.236-27.465,34.3-15.376,53.224-26.021,34.3-18.924,44.945-23.656,15.377-7.1,18.924-7.1,21.289,14.95,29.569,16.345,34.3,10.859,47.31,17.956,29.571,17.742,34.3,22.473,18.923,10.905,23.655,16.1,5.573,8.741,16.389,13.472,23.355,9.462,29.5,11.827,15.611,2.366,22.707,8.28,15.377,10.787,22.473,17.813,66.235,5.494,81.612,7.443,28.386-.765,36.665,0,.3,2.091,29.721-7.443,27.543-10.716,42.083-13.082,45.292,1.183,45.292,1.183,10.644,3.548,18.924,7.1,10.644-2.224,22.472,4.8,9.462,12.939,27.2,14.122,18.924,8.8,34.3,7.356,22.178-5.289,35.336.181,19.727,4.792,35.366,12.821,75.961,39.962,97.251,39.962,24.838-3.549,31.934,0,35.484,2.335,39.032,8.857.762,2.956,10.435,7.695,17.951,16.747,25.048,16.657,5.913,5.808,22.472,4.634,11.828,14.185,50.86,0,44.945-13,48.494-15.37,5.927-1.2,18.339-5.922,16.377-18.292,32.137-23.335,15.758-5.994,26.4-12.024,14.194-17.73,22.472-18.976,24.839-15.18,24.839-15.18.85-5.652,6.931,0,7.261,9.7,10.81,13,11.828,6.845,17.743,10.393-.782,8.513,11.436,10.761,40.683,12.024,40.683,12.024,1.63,1.351,22,15.641,59.466,15.982,59.466,15.982,4.552,1.881,16.3-3.771,34.424-5.9,40.545-15.807-1.511-11.348,12.847-18.949,7.26-11.021,34.464-24.1,33.666-5.326,35.483-15.18,10.745,1,30.362-13.764,32.08-25.285,35.643-31.274,22.341-16.835,22.341-16.835-7-6.261,4.371-3.075,17.281,6.734,24.378,10.281,83.977,43.763,100.536,46.128,9.461,0,16.559,2.366,46.494,21.353,46.494,21.353V1867.03L-1.376,1845.577Z" transform="translate(0.834 -717.567)" fill="#7886a9"/>
      <path id="Path_144" data-name="Path 144" d="M3509.027,1548.388c.006.026,1.965,9.271,5.312,15.176s3.744,6.7,6.109,7.884,8.279,5.125,8.279,5.125,4.336,2.76,5.124,3.943,3.942,5.519,4.337,7.1.788,4.337,2.366,5.519a52.051,52.051,0,0,0,13.774,5.913c5.149,1.183,13.427,3.942,14.61,4.337a8.621,8.621,0,0,1,3.942,2.365c1.577,1.576,5.913,3.226,5.913,3.226l2.365,3.869s-.394-.4,1.971,2.366,12.1,7.244,10.955,9.5,7.968,5.087,9.94,5.875a22.892,22.892,0,0,1,7.885,4.337,29.057,29.057,0,0,0,7.1,4.337s1.578-3.154-3.154-6.7-9.461-6.307-11.432-7.883-4.731-3.775-7.491-6.026-4.337-3.435-5.125-5.407l-.788-1.971s2.476-4.585,4-2.292,5.07,3.869,7.83,7.023,5.125,7.49,7.49,8.673,5.628,4.336,8.925,4.73,10.518,3.345,11.31,3.608,4.614,1.1,4.921,1.8-.571,2.662,1.329,5.129,4.05,3.942,5.537,5.966,1.978,4.053,7.086,5.141,12.332,6.906,15.783,6.625a57.13,57.13,0,0,1,9.593.613l1.914.112s-.17-5.882-2.142-8.766-3.942-5.775-5.912-6.893-3.154.46-3.549-4.665,1.183-3.154-.393-5.125-5.535-5.9-10-6.967l0,0q-1.284-.226-2.6-.48a15.039,15.039,0,0,1-2.231-.446c-11.3-2.337-23.917-6.188-32.893-12.485-20.366-14.289-22-15.641-22-15.641s-28.464-9.775-40.683-12.024-5.524-7.213-11.437-10.761-14.194-7.1-17.742-10.394-4.731-7.348-10.81-13a9.064,9.064,0,0,0-3.854-2.433c-.917.044-1.433.072-1.454.073Z" transform="translate(-2125.708 -937.786)" fill="#8c97ba"/>
      <g id="Group_46" data-name="Group 46" transform="translate(659.974 577.586)">
        <path id="Path_170" data-name="Path 170" d="M2853.306,1821h-3.868C2852.475,1821.785,2853.306,1821,2853.306,1821Z" transform="translate(-2386.115 -1680.561)" fill="#8c97ba"/>
        <path id="Path_171" data-name="Path 171" d="M1706.443,1482.289c4.3-.093,16.023.6,20.807,3.8s4.784,2.413,10.3,4.778,11.4,2.365,13.98,4.73,17.557,3.538,25.442,4.528,21.287.2,27.594,3.357,21.287,12.615,21.287,12.615l21.288,11.826s-4.73.789,0,3.943.465,8.5,10.876,12.924,16.873,10.874,28.229,13.561,5.381,2.46,24.531,9.67,33.149,18.674,37.232,20.117-4.918-6.6,14.519,6.8,20.448,10.653,30.192,15.97,15.462,5.617,19.3,7.832,17.247,6.291,17.247,6.291h8.672s-31.254-14.123-38.238-14.123-7.49-8.025-14.586-11.209-19.753-10.222-20.126-13.4-2.712-6.639-8.257-9.492-7.6-3.365-14.838-7.6-16.7-11.969-23.007-10.858-21.693-1.469-24.442,0-26.807-13.561-26.807-13.561-2.365-1.82-2.365-4.219v-6.341c0-4.731.788-15.437,0-14.815s-7.258-3.319-7.258-3.319a41.112,41.112,0,0,0,15.141,3.319l6.307,6.142,6.78,7.884s1.894,3.154,9.778,3.943,19.711,4.8,22.076,3.187,1.443-2.331,9,0,35.427,17.779,35.427,17.779,9.39,9.643,15.2,11.291,12.907,7.166,21.974,8.742,11.432,9.521,19.317,7.915,12.615-.759,18.922,0,18.775,4.634,18.775,4.634-17.985-7.818-24.293-10.972-17.147-11.177-20.4-10.319-13.279,6.237-19.3,0-1.879,3.368-14.99-11.291-5.226-9.139-13.111-14.658c-6.686-4.681-8.759-5.958-14.8-7.682-1.081-.309-2.29-.632-3.675-.991-9.121-2.366-19.043-4.731-19.043-4.731s-11.667,1.578-13.094-6.307-3-11.826,5.67-7.884,58.052,24.474,58.052,24.474,2.657-.327,8.177,5.734,13.8,15.641,13.8,15.641h7.766s10.763,8.413,15.493,7.695,12.615-.858,15.769,0,5.518.858,8.672,3.224,7.589,7.1,9.314,8.672,3.3,1.636,10.4,4.761,10.249,4.569,12.615,5.817a90.317,90.317,0,0,0,15.769,7.587c8.672,3.122,24.441,5.488,24.441,5.488h17.519c-2.292-.593-5.844-2.081-11.255-5.488-12.571-7.915-15.725-10.222-23.609-13.4s-11.038-3.184-16.557-6.338-11.038-4.168-16.558-11.939-9.113-3.818-10.567-9.671-.423,4.91-13.849-5.269h0c-.545.006-1.1.008-1.668.008-21.29,0-81.611-31.934-97.251-39.962s-22.209-7.348-35.366-12.821-19.961-1.625-35.337-.181-16.559-6.174-34.3-7.356-15.376-7.1-27.2-14.122-14.194-1.254-22.472-4.8-18.924-7.1-18.924-7.1-30.752-3.548-45.292-1.183-12.665,3.548-42.082,13.082c-4.484,1.453-8.1,2.653-11.032,3.641C1674.179,1482.289,1702.142,1482.383,1706.443,1482.289Z" transform="translate(-1674.139 -1464.753)" fill="#8c97ba"/>
      </g>
      <path id="Path_172" data-name="Path 172" d="M920.921,1282.956c-6.149-2.366-18.689-7.1-29.5-11.827s-11.657-8.279-16.389-13.472-18.924-11.367-23.655-16.1-21.29-15.376-34.3-22.473-39.031-16.559-47.31-17.956-26.021-16.345-29.569-16.345c-2.141,0-4.714.863-8.754,2.585,0,0,.625-.129,7.711,4.6s14.192,9.165,14.192,9.165,7.884,10.546,11.827,13.7,11.038,11.827,14.98,12.615,11.827,1.577,17.346,3.942,15.768,6.308,18.134,7.1,10.249,7.1,10.249,7.1l12.518,11.038,4.04,16.557s7.1,15.769,12.615,18.134,25.23,11.038,25.23,11.038l11.137,6.7s5.42-4.337,10.15,0,6.681,10.643,12.013,12.221,10.063,9.844,12.429,9.258,17.346,6.511,17.346,6.511,7.633,1.576,12.095,3.942,2.962,7.427,10.019,8.838,14.942,7.718,18.1,10.084,5.026,6.307,10.4,7.1,8.626,4.8,11.729,3.976-4.486-13.437-11.729-17.379a127.6,127.6,0,0,1-15.916-10.249c-5.52-3.943-22.6-17.346-22.6-17.346l-17.614-16.951s-3.942-6.7,7.1,0,16.634,9.067,20.537,11.432a133.358,133.358,0,0,0,11.788,6.308c6.308,3.154,15.276.384,16.705,3.739s12.443,7.3,12.443,7.3-.765,0,6.332,4.73,24.441,13.4,24.441,13.4-21.287-25.635-27.594-25.433-12.321-1.374-15.621-3.739-5.666-3.943-10.4-7.1-.258,1.319-4.731-3.154-8.262-3.433-12.732-7.49c-7.1-7.026-15.376-11.9-22.473-17.813S927.07,1285.322,920.921,1282.956Z" transform="translate(-443.093 -717.567)" fill="#8c97ba"/>
    </g>
  </g>
</svg>
