<?xml version="1.0" encoding="utf-8"?>
<!-- Generator: Adobe Illustrator 23.0.6, SVG Export Plug-In . SVG Version: 6.00 Build 0)  -->
<svg version="1.1" id="Layer_1" xmlns="http://www.w3.org/2000/svg" xmlns:xlink="http://www.w3.org/1999/xlink" x="0px" y="0px"
	 viewBox="0 0 1366 768" style="enable-background:new 0 0 1366 768;" xml:space="preserve">
<style type="text/css">
	.st0{fill:#152A54;}
	.st1{fill:#FEFEFE;}
</style>
<g>
	<path class="st0" d="M0.5,611.4c0-49.3,0-98.7,0-148c1.3,0.5,2.5,1.3,3.9,1.7c5.9,1.7,12,1.6,18,3.3c4,1.1,8.6,1.4,13,1.3
		c1.9-0.1,3.8-1.2,5.8-0.9c3.6,0.5,7.2,0.3,10.8,0.6c6.1,0.5,12.4,1.2,18.5-0.5c0.9-0.2,1.9-0.2,2.7,0.2c1,0.5,2.1,0.4,3.1,0.6
		c4.2,0.7,8.3-1.5,12.5-0.1c0.3,0.1,0.8,0,1.1-0.2c4-2,8.4-0.3,12.6-1.2c2.4-0.5,5-0.3,7.5-0.9c2.8-0.7,5.5-1.5,8.5-1.2
		c1.4,0.2,2.8-0.1,4.2-0.6c3.8-1.3,7.7-1.5,11.7-1.1c2,0.2,4.1,0.5,5.8,1.7c1.8,1.3,3.7,2.1,5.9,1.9c3.7-0.4,7.1,1.2,10.8,1.1
		c0.4,0,1,0.1,1.2,0.4c1.2,1.6,2.9,1.3,4.6,1.4c1.6,0.1,3.3-0.1,4.6,1.2c1.7,1.8,3.9,2,5.9,1.2c5.8-2.6,12.1-1.4,18.1-2.4
		c3.9-0.7,7.9-0.1,11.9,0.6c3.3,0.6,6.3,2,9,3.8c3.2,2.1,6.3,4,10.3,3.7c2.2-0.2,4.4-0.1,6.6,0c3.2,0.2,6.5-0.4,9.4,1.9
		c0.5,0.4,1.3,0.6,2.1,0.7c7.2,0.3,14.5-0.5,21.7,0.8c3,0.5,6.2,0,9.4-0.6c3.8-0.7,7.9-0.4,11.9,0.3c3.8,0.7,7.9,0.6,11.9-0.2
		c3.3-0.7,6.8-0.9,10.1-1.5c3.1-0.6,6.2-2.1,9.3-2.3c5-0.3,9.9-0.5,14.8-1.1c1.9-0.2,3.9-0.1,5.9,0c1.2,0.1,2.3-0.2,3.1-1.1
		c1.1-1.3,2.5-1.6,4.1-1.6c3.6-0.2,7.2,0.6,10.8-0.6c0.6-0.2,1.4-0.1,2,0.1c6.6,2.4,13.4,1.7,20,0.4c3.8-0.8,7.7-1.1,11.5-1.5
		c4.2-0.5,8.2-1.6,12.3-2.2c3.2-0.4,6.3-1.4,9.5-1.5c7.8-0.1,15.6-0.1,23.4,0c1.4,0,2.6,0.3,4,0.6c3.2,0.7,6.5,1.6,9.5-0.7
		c0.8-0.6,1.7-0.6,2.5-0.8c0.8-0.1,1.4,0,1.7,1c0.6,2.4,2.6,3.1,4.8,3.5c4.8,0.7,9.4-1.2,14.2-0.9c0.2,0,0.4-0.1,0.6-0.2
		c3.1-0.7,6.3-1.4,9.5-1.6c7.2-0.5,14.3,1.5,21.5,0.9c1.1-0.1,2.4,0.3,3.4-0.2c3.4-1.5,7.2-1.6,10.7-3c3.4-1.4,7.2-2.3,10.9-3.3
		c1.7-0.5,3.8-0.1,5-1.1c2.4-1.8,5.3-2,7.9-2.9c5.3-1.9,11-2.8,16.5-4.1c2.8-0.7,5.8-1.2,8.4-2.3c2.8-1.2,5.6-2.1,8.4-2.1
		c6.6-0.2,13-0.8,19.5-1.8c5.5-0.8,11.2,0.2,16.7-1.1c2.5-0.6,4.9,1,7.3,0.9c5.1-0.2,10.2,0.1,15.3-0.7c5.3-0.8,10.9-0.2,16.4-0.2
		c0.6,0,1.2,0.1,1.8,0.3c3.4,1.5,7.2,1.7,10.7,2.2c5.4,0.8,10.7,2,16,3.2c2.1,0.5,4.4,0,6.1,1.2c1.4,1,2.8,1.3,4.4,1.3
		c0.7,0,1.4,0.1,2,0.3c2.6,0.8,5.3,1.4,8.1,1.5c6.3,0.1,12.6,0.3,17.7,5c0.2,0.2,0.5,0.3,0.8,0.4c3.6,0.9,6.9,2.2,9.9,4.3
		c1.5,1,3,1.8,4.8,2.4c3.2,1.1,6.8,2.5,8.8,5.1c2.3,3,4.9,3.6,8.1,3.7c1.4,0.1,2.7,0.1,3.7,1.3c2,2.4,5,3.2,7.7,4.4
		c2.2,1,4.6,2,6.4,3.5c1.7,1.5,3.5,2,5.6,1.9c2.1,0,4.2-0.1,6.4-0.2c0.6,0,1.4,0.2,1.3-0.7c-0.2-2,0.9-2.1,2.4-1.8
		c0.6,0.1,1.2-0.1,1.7-0.4c1.5-1.1,3.3-1,4.5-0.2c3.5,2.2,7.6,3.1,10.9,5.7c2.2,1.7,2.9,1.6,4.6-0.6c1.5-2,3.6-3,6-3.2
		c0.7-0.1,1.8,0.2,1.8-0.9c0.1-1.7,1.2-1.2,2.1-1.3c1.9-0.1,4,1,5.4-1.2c0.1-0.2,0.6-0.3,0.8-0.2c2.3,1.1,4,0.1,5.6-1.5
		c1.3-1.2,3.5-2.1,4.6-0.7c1.5,2,2.7,1.1,4.1,0.5c2.7-1.3,5.4-1.8,8.6-1.3c2.1,0.4,4.4-0.1,6.4,1.2c0.7,0.5,1.1-0.3,1.5-0.6
		c0.8-0.4,1.4-0.7,2.3-0.1c1.9,1.4,4,1.8,6.3,2c2.4,0.2,4.6,1.1,7,1.4c1.4,0.2,2.7,0.5,4.1-0.1c1.9-0.7,4.1-0.8,6,0.1
		c1.1,0.6,2,0.7,2.9,0.1c0.9-0.5,1.9-0.7,2.7,0.2c1.9,1.8,3.7,3.6,6.3,4.6c1.5,0.6,2.5,1.1,4.1,0.4c3.1-1.3,5.3-0.1,6.2,3.2
		c0.1,0.4,0.1,0.8,0.7,1c3.2,0.7,5.7,3.3,9.2,3.4c1,0,2.1,0.1,2.8,0.6c3,2.1,6.4,2.3,9.8,2.4c0.7,0,1.6,0.1,2.2,0.4
		c3.6,2.3,7.5,2.9,11.7,3.2c2.3,0.2,4.5,1,6.8,1.1c0.5,0,0.9,0.5,1.4,0.7c2.4,1,4.8,1.7,7.5,1.1c1.6-0.3,3.2-0.9,4.7-1.3
		c1.9-0.5,4.2-1.2,5.4-2.8c1.3-1.7,1.8-4.2,4.8-2.8c0.2,0.1,0.5-0.3,0.8-0.4c1.9-1,3.6-2.3,5.2-3.7c2.9-2.5,4.8-5.9,7.9-8.2
		c2.4-1.8,4.5-4.2,7.8-4.1c4.3,0.2,8.4-0.8,12.5-1.8c2.6-0.7,5.1-2.1,7.8-2.2c6.4-0.2,12.9-0.2,19.3-0.2c6.8-0.1,13.5-0.6,19.7-3.4
		c3.2-1.4,6.4-2,9.9-2c6.8,0,13.6,0.3,20.5-0.3c3.2-0.3,6.4-0.6,9.5,0.2c5.5,1.4,10.9,3.1,16.3,4.8c7.9,2.5,15.5,6.2,24.1,5.9
		c1.2,0,2.3,0.4,3.4,1.2c4.3,3.4,8.9,6.4,13.6,9.1c3.1,1.8,5.4,4.2,5.9,7.9c0.2,1.8,0.9,2.9,2.6,3.9c1.4,0.8,3,1.2,4.4,2.1
		c2.1,1.3,5.1,0.2,7.1,2.2c0,0,0.1,0,0.2-0.1c3.3-1.4,6.9-0.8,10.4-2c4.1-1.4,8.2-3.6,12.9-3.2c0.2,0,0.4-0.2,0.6-0.3
		c3-1.5,6.4-1.8,9.5-2.9c3.8-1.2,7.9-2.3,12-2.2c0.8,0,1.2-0.6,1.8-0.8c2.3-0.8,4.1-3,6.7-2.8c4,0.3,7.6-1.6,11.4-2.2
		c4.8-0.8,9.2-3.6,14.1-4.5c2.8-0.5,5.3-2,8-3.1c4.3-1.7,9.1-2.1,13.1-4.6c2.3-1.4,4.8-0.6,7.1-1.3c5.2-1.6,10.7-1.8,16.1-2.2
		c4-0.3,8-0.7,11.9-1.3c7.7-1.2,15.4-1.8,23.2-1.6c1.4,0,2.7-0.1,4-0.6c5.8-1.9,11.8-1.7,17.6-0.9c4.3,0.6,8.4,0.5,12.6,0.5
		c0.6,0,1.4,0,2-0.4c3-2.1,6.4-2.5,10-2.1c0,45.7,0,91.4,0,137.1C911.1,611.4,455.8,611.4,0.5,611.4z"/>
	<path class="st1" d="M0.5,611.4c455.3,0,910.7,0,1366,0c-0.1,0.1,0.2,0.5-0.2,0.5c-0.6,0-1.2,0-1.8,0c-454,0-907.9,0-1361.9,0
		C1.8,611.8,1,612.3,0.5,611.4z"/>
</g>
</svg>
