<?xml version="1.0" encoding="utf-8"?>
<!-- Generator: Adobe Illustrator 23.0.6, SVG Export Plug-In . SVG Version: 6.00 Build 0)  -->
<svg version="1.1" id="Layer_1" xmlns="http://www.w3.org/2000/svg" xmlns:xlink="http://www.w3.org/1999/xlink" x="0px" y="0px"
	 viewBox="0 0 1366 768" style="enable-background:new 0 0 1366 768;" xml:space="preserve">
<style type="text/css">
	.st0{fill:#17204C;}
	.st1{fill:#FDFDFD;}
</style>
<g>
	<path class="st0" d="M1365.9,474.6c0,45.1,0,90.1,0,135.2c0,1.6-0.3,1.9-1.9,1.9c-453.9,0-907.9,0-1361.8,0c-1.6,0-1.9-0.3-1.9-1.9
		c0.1-48.6,0-97.1,0-145.7c1,0.4,2,1,3,1.3c6,1.8,12.4,1.4,18.5,3.5c3.1,1,6.8,0.6,10.3,1.1c4.2,0.6,8.3-1.6,12.5-0.4
		c0.4,0.1,0.9-0.2,1.3-0.3c0.8-0.2,1.7-0.3,2.5,0c2,0.9,4.1,0.7,6.3,0.8c4.1,0.2,8.2-0.5,12.2,0.4c0.7,0.1,1.4,0.1,2-0.3
		c1.3-1.1,2.6-0.8,4-0.4c0.7,0.2,1.5,0.3,2.2,0.3c3.1-0.1,6.2-0.3,9.3-0.2c3.1,0.1,6.1-0.2,9.1-0.9c0.2,0,0.4,0.1,0.7,0.1
		c4.2,0,8.3,0,12.5-0.7c3-0.5,5.8-1.9,8.8-1.8c3.9,0.1,7.6-0.9,11.4-1.6c4.4-0.9,8.9-0.5,12.9,2c1.5,0.9,3,1.6,4.7,1.3
		c3.8-0.5,7.3,1.2,11,1c0.6,0,1.4,0.4,1.8,0.9c1.1,1.2,2.4,1.4,3.9,1.3c2.1-0.1,3.9,0.3,5.7,1.6c1.8,1.3,3.9,1.6,6,0.6
		c3.4-1.5,6.9-2.1,10.6-1.8c1.1,0.1,2.3,0,3.4-0.2c9-1.6,17.5-0.9,25.1,4.8c1.6,1.2,3.6,2.5,5.7,2.7c5.7,0.4,11.5-0.7,17.5,1.2
		c-1.4-2-1.1-2.7,1-3.2c4.2-1,8.4-2.4,12.8-3c4-0.5,8-1.6,12.1-1.5c4.8,0.1,9.3-1.6,13.3-4.1c2.9-1.8,6-3,9.1-3
		c8.5-0.1,17.1-0.7,25.7,0.3c0.8,0.1,1.6,0.1,2.4-0.3c2.7-1.2,5.5-1.8,8.5-2c9.3-0.7,18.7,1.5,27.9-1.6c3-1,6.6-1.1,9.8-1.7
		c4.4-0.8,9.4-1.6,13.7,1.2c0.7,0.4,1.5,0.2,2.2,0.3c2.6,0.3,5-1,7.6-1c10.9,0.2,21.8,0.2,32.8,0c4.1-0.1,7.8-2,11.3-4
		c1.3-0.8,2.4-1.5,3.9-1.4c4.1,0.2,8.2-0.1,12.4,0.8c4,0.9,8-1.5,12-1.5c5.9-0.1,10.6-3.4,16-4.5c3.3-0.7,6-3.4,9.7-2.9
		c0.5,0.1,1-0.2,1.5-0.4c1.3-0.6,2.5-0.5,3.7,0c2.9,1.3,6,1.5,9.1,1.3c3.5-0.1,6.8,1.1,9.8,2.5c3.2,1.6,6.3,3.6,9.9,4.2
		c0.5,0.1,1,0.4,1.4,0.7c1.6,1.3,3.4,1.8,5.5,1.6c2.1-0.1,4.2-0.1,6.4,0c2.3,0.1,4.4-0.5,6.3-1.7c1.4-0.8,2.8-1.1,4.3-1.1
		c7.9,0.1,15.8,0.2,23.6-1.7c1.8-0.4,3.2-1.6,5-2c2.4-0.6,4.8-0.4,7.1-1.3c4.2-1.6,8.6-1.5,12.9-2.1c5.1-0.7,10.3-1,15.4-2
		c1.3-0.2,2.5-0.9,3.7-0.8c8.4,0.2,16.7-1.3,24.5-4.1c5.9-2.1,12.1-1.7,18-3.9c3.8-1.5,8-2.6,12.3-1.2c0.5,0.2,1.2-0.3,1.7-0.4
		c4.2-1.1,8.4-2.8,12.7-3c4.5-0.1,8.8-1.6,13.3-1.1c0.3,0,0.6-0.1,0.9-0.2c4.5-1.3,9-2.1,13.6-1.6c6.1,0.6,11.4-1.5,16.7-3.8
		c2.1-0.9,4-2.7,6.2-2.5c4.1,0.3,7.2-1.7,10.5-3.5c2-1.1,4.1-2.2,6.4-1.9c3.8,0.4,6.9-1,10-2.8c2.4-1.5,4.7-1,7,0.3
		c1.7,0.9,2.8,2.5,4.6,3.3c3.3,1.4,6.1,4.1,10.1,3.6c0.9-0.1,1.9,0.9,3,0.7c4.6-0.9,9.2-0.1,13.2,1.6c5.1,2.2,10.3,2.9,15.6,2.5
		c7.1-0.5,14,1.3,21,1c2.2-0.1,4.6,0.4,6.6,1.1c4.1,1.6,8.4,2.5,12.6,4c1.3,0.5,2.7,0.6,4,1.3c3.9,2.1,8.1,3.7,12.3,5
		c3.3,1,6.9,1.5,10,2.5c7.1,2.3,14.4,1.5,21.5,2.2c8.9,0.9,17.9,0.3,26.8,0.2c2.5,0,4.6,0.6,6.4,2.3c1.7,1.6,3.8,2.5,6.2,2.3
		c5.4-0.6,10.7,0.7,16.2-0.8c3.7-1,7.8-0.1,11.7-1c2.3-0.5,4.8,0.2,7.2,1c3.1,1.1,6.3,2.1,9.5,3.2c2.1,0.8,4.8,0.2,7.2,0.2
		c3.2,0,6.4-0.3,9.4,0.9c2.4,0.9,5.3,0.2,7.5,1.3c3.5,1.8,7.4,1.6,10.9,3.1c4.6,1.8,9.6,2.9,14.1,5.2c1.1,0.6,2.3,0.9,3.3,1.4
		c2.5,1.5,5.5,1.5,8,2.9c2.6,1.5,5.3,3.2,8.1,4c5,1.2,8.4,4.9,12.6,7.3c3,1.6,4.3,2.4,7.4,0.8c0.7-0.4,1.4-0.8,2.1-0.2
		c1.5,1.1,3.3,1.4,5.1,1.7c1.8,0.3,3.6,1,5,2.4c1.1,1.1,2.7,1.5,4,0.7c1.6-1,2.6-0.5,3.7,0.7c1.1,1.3,2.5,1.8,4,0.6
		c0.8-0.6,1.6-0.6,2.3-0.1c1.1,0.7,2,0.4,2.9-0.3c1.5-1.2,3.2-1.7,5.1-1.4c7,1,13.4-1.8,19.9-3.3c3-0.7,6.1-1.5,9.1-2.3
		c5-1.3,10.3-1.6,14.9-4.3c0.8-0.4,1.6-0.1,2.4,0.2c2.7,1.2,5.5,2.5,8.3,3.6c3.5,1.4,6.9,3.3,10.2,5c2.4,1.3,4.6,2,7.2,1.8
		c4.6-0.2,9.2,0.5,13.6,1.7c2.3,0.6,4.5,1.2,6.9,1.1c3.9-0.3,7.9,0.2,11.4,1.4c4.1,1.4,8.6,1.1,12.5,3.2c3.5,1.8,7.8,1.8,11,4.6
		c0.8,0.7,1.8,0.6,2.8,0.4c3.8-1,7.7-2,11.5-3.2c4.9-1.6,9.5-4.1,14.7-5.1c1.9-0.4,3.6-1.1,5.1-2.2c1-0.7,2.2-0.9,3.5-0.9
		c1.1,0,2.2,0,3.4-0.3c5.6-1.5,11.4-1.9,17.2-2.3c3.7-0.2,7.4-0.8,11-1.2c6.4-0.8,12.7-1.8,19.1-1.6c3.2,0.1,6.5,0,9.7-0.9
		c5.5-1.5,11-1.1,16.6-0.2c4.1,0.6,8.5,0.2,12.7,0.1c0.6,0,1.3-0.4,1.9-0.8C1359.9,474.7,1362.8,474.1,1365.9,474.6z M236.2,480.3
		c0,0,0-0.1-0.1-0.1c-0.1,0-0.1,0-0.2,0c0,0,0,0.1,0.1,0.1C236.1,480.4,236.2,480.4,236.2,480.3z"/>
	<path class="st1" d="M236.2,480.3c-0.1,0-0.1,0-0.2,0c0,0,0-0.1-0.1-0.1c0.1,0,0.1,0,0.2,0C236.2,480.2,236.2,480.3,236.2,480.3z"
		/>
</g>
</svg>
